<mxfile host="app.diagrams.net" modified="2024-02-21T21:48:19.544Z" agent="Mozilla/5.0 (Windows NT 10.0; Win64; x64; rv:121.0) Gecko/20100101 Firefox/121.0" etag="HnAH0G4wpBX2SD4FnyFe" version="23.1.5" type="github">
  <diagram name="PÃ¡gina-1" id="uKG1hIwC789y6OuYV_Js">
    <mxGraphModel dx="1687" dy="920" grid="1" gridSize="10" guides="1" tooltips="1" connect="1" arrows="1" fold="1" page="1" pageScale="1" pageWidth="827" pageHeight="1169" math="0" shadow="0">
      <root>
        <mxCell id="0" />
        <mxCell id="1" parent="0" />
        <mxCell id="Io_aHo277Q3QV6PfObrv-2" value="" style="rounded=0;whiteSpace=wrap;html=1;" vertex="1" parent="1">
          <mxGeometry x="220" y="340" width="400" height="520" as="geometry" />
        </mxCell>
        <mxCell id="Io_aHo277Q3QV6PfObrv-1" value="" style="ellipse;whiteSpace=wrap;html=1;" vertex="1" parent="1">
          <mxGeometry x="414" y="380" width="120" height="80" as="geometry" />
        </mxCell>
      </root>
    </mxGraphModel>
  </diagram>
</mxfile>
